HIERARCHY
ROOT root
{
	OFFSET	0	13.1	24.9
	CHANNELS 6  Xposition Yposition Zposition Xrotation Yrotation Zrotation
	JOINT spine_1
	{
		OFFSET	0	9.99999	0
		CHANNELS 3  Xrotation Yrotation Zrotation
		JOINT spine_2
		{
			OFFSET	0	112	-10
			CHANNELS 3  Xrotation Yrotation Zrotation
			JOINT spine_3
			{
				OFFSET	0	206.5	19.3
				CHANNELS 3  Xrotation Yrotation Zrotation
				JOINT spine_4
				{
					OFFSET	0	110.4	14.6
					CHANNELS 3  Xrotation Yrotation Zrotation
					JOINT neck_1
					{
						OFFSET	0	71.8	-50.3
						CHANNELS 3  Xrotation Yrotation Zrotation
						JOINT neck_2
						{
							OFFSET	0	86.2	-25.8
							CHANNELS 3  Xrotation Yrotation Zrotation
							JOINT head_ee
							{
								OFFSET	0	179.8	-8.7
								CHANNELS 3  Xrotation Yrotation Zrotation
								End Site
								{
									OFFSET	1	0	0
								}
							}
						}
					}
					JOINT left_clavicle
					{
						OFFSET	-43.2	22.4	-70.8
						CHANNELS 3  Xrotation Yrotation Zrotation
						JOINT left_shoulder
						{
							OFFSET	-93.9	-5.79999	48.7
							CHANNELS 3  Xrotation Yrotation Zrotation
							JOINT left_elbow
							{
								OFFSET	-291.4	-30.8	15.2
								CHANNELS 3  Xrotation Yrotation Zrotation
								JOINT left_lowarm_twist
								{
									OFFSET	-110.7	-3.89999	13.6
									CHANNELS 3  Xrotation Yrotation Zrotation
									JOINT left_hand
									{
										OFFSET	-110.7	-3.89999	13.6
										CHANNELS 3  Xrotation Yrotation Zrotation
										JOINT left_ee
										{
											OFFSET	-80.8	-5.10001	12.1
											CHANNELS 3  Xrotation Yrotation Zrotation
											End Site
											{
												OFFSET	1	0	0
											}
										}
									}
								}
							}
						}
					}
					JOINT right_clavicle
					{
						OFFSET	43.2	22.4	-70.8
						CHANNELS 3  Xrotation Yrotation Zrotation
						JOINT right_shoulder
						{
							OFFSET	93.9	-5.79999	48.7
							CHANNELS 3  Xrotation Yrotation Zrotation
							JOINT right_elbow
							{
								OFFSET	291.4	-30.8	15.2
								CHANNELS 3  Xrotation Yrotation Zrotation
								JOINT right_lowarm_twist
								{
									OFFSET	110.7	-3.89999	13.6
									CHANNELS 3  Xrotation Yrotation Zrotation
									JOINT right_hand
									{
										OFFSET	110.7	-3.89999	13.6
										CHANNELS 3  Xrotation Yrotation Zrotation
										JOINT right_ee
										{
											OFFSET	80.8	-5.10001	12.1
											CHANNELS 3  Xrotation Yrotation Zrotation
											End Site
											{
												OFFSET	1	0	0
											}
										}
									}
								}
							}
						}
					}
				}
			}
		}
	}
	JOINT left_hip
	{
		OFFSET	-82.8	-127.5	0.300001
		CHANNELS 3  Xrotation Yrotation Zrotation
		JOINT left_knee
		{
			OFFSET	-28.2	-396.7	2.2
			CHANNELS 3  Xrotation Yrotation Zrotation
			JOINT left_ankle
			{
				OFFSET	-11.7	-411.3	35.4
				CHANNELS 3  Xrotation Yrotation Zrotation
				JOINT left_toes
				{
					OFFSET	0	-60	-88.6
					CHANNELS 3  Xrotation Yrotation Zrotation
					JOINT left_foot_ee
					{
						OFFSET	-22.5	-16.5	-42.2
						CHANNELS 3  Xrotation Yrotation Zrotation
						End Site
						{
							OFFSET	1	0	0
						}
					}
				}
			}
		}
	}
	JOINT right_hip
	{
		OFFSET	82.8	-127.5	0.300001
		CHANNELS 3  Xrotation Yrotation Zrotation
		JOINT right_knee
		{
			OFFSET	28.2	-396.7	2.2
			CHANNELS 3  Xrotation Yrotation Zrotation
			JOINT right_ankle
			{
				OFFSET	11.7	-411.3	35.4
				CHANNELS 3  Xrotation Yrotation Zrotation
				JOINT right_toes
				{
					OFFSET	0	-60	-88.6
					CHANNELS 3  Xrotation Yrotation Zrotation
					JOINT right_foot_ee
					{
						OFFSET	22.5	-16.5	-42.2
						CHANNELS 3  Xrotation Yrotation Zrotation
						End Site
						{
							OFFSET	1	0	0
						}
					}
				}
			}
		}
	}
}
MOTION
Frames: 10
Frame Time: 0.02
3588.34226375 736.05 -1569.34574273 -6.75255082158 -9.68313278825 -6.61072569042 3.9842 1.14273 3.90211 3.99223 0.892316 3.96678 4.04939 0.326969 4.0526 4.02777 0.962398 3.95038 -15.1292 11.452 -5.44114 -15.6425 25.1003 -1.15965 -0.0 0.0 -0.0 -9.0551 17.1285 -12.3521 -1.74629 -41.3231 56.1402 2.79614 -54.1623 1.42991 -7.81992 -0.340252 0.939248 0.689825 -11.9915 -0.446982 -0.0 0.0 -0.0 8.85306 -9.09289 -16.8086 -51.8998 45.915 -55.802 0.51242 14.2432 -0.0640218 51.9233 1.10991 6.31519 -2.7607 -28.388 3.8587 0.0 0.0 0.0 37.3465 5.01251 -8.55304 -53.3736 -1.5285 7.7562 34.3002 -3.647 -4.38725 10.8186 -0.0 -0.0 -0.0 0.0 -0.0 9.61082 43.3928 -6.31375 -18.8697 -0.307376 -2.86634 42.3125 -23.5718 5.33725 -1.47134 0.0 0.0 0.0 0.0 0.0 
3590.00942828 736.364 -1571.57417084 -7.04589174623 -13.3737548646 -6.96142689457 3.84439 1.04074 3.86722 3.85236 0.792747 3.92548 3.90243 0.223657 3.99837 3.88113 0.851831 3.91311 -14.1019 12.1079 -5.53394 -14.5933 26.4437 -1.2581 -0.0 0.0 -0.0 -8.78072 15.7284 -12.4003 -1.75986 -39.3704 55.8983 3.03142 -56.3279 1.62325 -7.64743 -0.331373 0.919054 0.646003 -11.8988 -0.702454 -0.0 0.0 -0.0 8.92581 -8.51128 -16.9897 -52.8754 46.5041 -54.8218 0.460597 12.8531 -0.0518807 53.8416 1.25735 6.51174 -2.58391 -28.4426 2.87377 0.0 0.0 0.0 40.273 4.19962 -9.47385 -55.7849 -1.76244 8.04495 33.3683 -2.02882 -4.27649 13.914 -0.0 -0.0 -0.0 0.0 -0.0 9.24399 42.9458 -5.90369 -18.3696 -0.311479 -2.78971 42.0746 -23.2067 5.30444 -2.34189 0.0 0.0 0.0 0.0 0.0 
3578.65224233 731.72 -1596.47674092 -7.6761928701 -13.5513927964 -6.88156015893 3.66265 0.646522 3.78292 3.67052 0.404674 3.81633 3.69365 -0.159713 3.83437 3.67341 0.447409 3.81156 -14.0562 13.639 -5.01263 -14.6954 29.0452 -0.214207 -0.0 0.0 -0.0 -8.62073 18.1008 -11.2796 4.23182 -32.7228 57.3065 4.39428 -65.3057 2.81678 -9.39248 -0.424008 1.12211 0.497844 -12.6636 -2.02961 -0.0 0.0 -0.0 8.84913 -7.18587 -16.9426 -55.0583 47.3417 -53.5165 0.306626 8.63704 -0.023155 59.6941 1.74677 7.07964 -1.18476 -28.7607 -4.81373 0.0 0.0 0.0 40.5996 7.46233 -12.1062 -30.3095 0.0320864 4.59743 24.5908 -9.07422 -3.41092 16.9991 -0.0 -0.0 -0.0 0.0 -0.0 6.41641 45.7601 -4.24609 -17.4186 -0.317436 -2.64392 42.6817 -24.4181 5.39802 -2.93047 0.0 0.0 0.0 0.0 0.0 
3495.50765591 711.584 -1730.79138516 -9.98286506751 -13.0860082824 -4.53692318176 4.59743 0.475355 3.38417 4.60376 0.259176 3.40753 4.61443 -0.188968 3.41213 4.59835 0.351967 3.3992 -12.5464 13.0632 -5.85713 -12.9693 28.4974 -1.65113 -0.0 0.0 -0.0 -7.85067 16.4827 -10.5768 5.18507 -30.3186 58.9113 4.5549 -66.0757 2.96317 -8.97459 -0.40126 1.07374 0.841701 -8.56021 2.04882 -0.0 0.0 -0.0 7.53466 -3.98918 -14.5838 -57.036 47.285 -52.6295 0.378212 10.6119 -0.0351252 70.272 2.76865 7.96923 2.13865 -29.8465 -23.7237 0.0 0.0 0.0 30.9522 20.1648 -9.2181 3.6853 -0.169209 -0.540042 -17.6068 8.77988 2.64404 9.63148 -0.0 -0.0 -0.0 0.0 -0.0 -4.99236 36.4837 3.98959 -10.3495 -0.285839 -1.56043 42.447 -21.9588 5.30077 -9.24399 0.0 0.0 0.0 0.0 0.0 
3481.24169267 711.584 -1725.95180252 -9.86985184155 -9.91248320766 -3.9702507328 4.59743 0.475355 3.38417 4.60376 0.259176 3.40753 4.61443 -0.188968 3.41213 4.59835 0.351967 3.3992 -12.5464 13.0632 -5.85713 -12.9693 28.4974 -1.65113 -0.0 0.0 -0.0 -7.85067 16.4827 -10.5768 5.18507 -30.3186 58.9113 4.5549 -66.0757 2.96317 -8.97459 -0.40126 1.07374 0.841701 -8.56021 2.04882 -0.0 0.0 -0.0 7.53466 -3.98918 -14.5838 -57.036 47.285 -52.6295 0.378212 10.6119 -0.0351252 70.272 2.76865 7.96923 2.13865 -29.8465 -23.7237 0.0 0.0 0.0 30.9522 20.1648 -9.2181 3.6853 -0.169209 -0.540042 -17.6068 8.77988 2.64404 9.63148 -0.0 -0.0 -0.0 0.0 -0.0 -4.99236 36.4837 3.98959 -10.3495 -0.285839 -1.56043 42.447 -21.9588 5.30077 -9.24399 0.0 0.0 0.0 0.0 0.0 
3467.85448202 711.584 -1720.572188 -9.79210988441 -6.8722701537 -3.43778547924 4.59743 0.475355 3.38417 4.60376 0.259176 3.40753 4.61443 -0.188968 3.41213 4.59835 0.351967 3.3992 -12.5464 13.0632 -5.85713 -12.9693 28.4974 -1.65113 -0.0 0.0 -0.0 -7.85067 16.4827 -10.5768 5.18507 -30.3186 58.9113 4.5549 -66.0757 2.96317 -8.97459 -0.40126 1.07374 0.841701 -8.56021 2.04882 -0.0 0.0 -0.0 7.53466 -3.98918 -14.5838 -57.036 47.285 -52.6295 0.378212 10.6119 -0.0351252 70.272 2.76865 7.96923 2.13865 -29.8465 -23.7237 0.0 0.0 0.0 30.9522 20.1648 -9.2181 3.6853 -0.169209 -0.540042 -17.6068 8.77988 2.64404 9.63148 -0.0 -0.0 -0.0 0.0 -0.0 -4.99236 36.4837 3.98959 -10.3495 -0.285839 -1.56043 42.447 -21.9588 5.30077 -9.24399 0.0 0.0 0.0 0.0 0.0 
3455.25940206 711.584 -1714.72029755 -9.74438753494 -3.94522031425 -2.93167112804 4.59743 0.475355 3.38417 4.60376 0.259176 3.40753 4.61443 -0.188968 3.41213 4.59835 0.351967 3.3992 -12.5464 13.0632 -5.85713 -12.9693 28.4974 -1.65113 -0.0 0.0 -0.0 -7.85067 16.4827 -10.5768 5.18507 -30.3186 58.9113 4.5549 -66.0757 2.96317 -8.97459 -0.40126 1.07374 0.841701 -8.56021 2.04882 -0.0 0.0 -0.0 7.53466 -3.98918 -14.5838 -57.036 47.285 -52.6295 0.378212 10.6119 -0.0351252 70.272 2.76865 7.96923 2.13865 -29.8465 -23.7237 0.0 0.0 0.0 30.9522 20.1648 -9.2181 3.6853 -0.169209 -0.540042 -17.6068 8.77988 2.64404 9.63148 -0.0 -0.0 -0.0 0.0 -0.0 -4.99236 36.4837 3.98959 -10.3495 -0.285839 -1.56043 42.447 -21.9588 5.30077 -9.24399 0.0 0.0 0.0 0.0 0.0 
3445.01796482 711.584 -1709.35673401 -9.72447462091 -1.50849625484 -2.51320652913 4.59743 0.475355 3.38417 4.60376 0.259176 3.40753 4.61443 -0.188968 3.41213 4.59835 0.351967 3.3992 -12.5464 13.0632 -5.85713 -12.9693 28.4974 -1.65113 -0.0 0.0 -0.0 -7.85067 16.4827 -10.5768 5.18507 -30.3186 58.9113 4.5549 -66.0757 2.96317 -8.97459 -0.40126 1.07374 0.841701 -8.56021 2.04882 -0.0 0.0 -0.0 7.53466 -3.98918 -14.5838 -57.036 47.285 -52.6295 0.378212 10.6119 -0.0351252 70.272 2.76865 7.96923 2.13865 -29.8465 -23.7237 0.0 0.0 0.0 30.9522 20.1648 -9.2181 3.6853 -0.169209 -0.540042 -17.6068 8.77988 2.64404 9.63148 -0.0 -0.0 -0.0 0.0 -0.0 -4.99236 36.4837 3.98959 -10.3495 -0.285839 -1.56043 42.447 -21.9588 5.30077 -9.24399 0.0 0.0 0.0 0.0 0.0 
3436.66529845 711.584 -1704.55217739 -9.72147987561 0.52250790704 -2.16520869132 4.59743 0.475355 3.38417 4.60376 0.259176 3.40753 4.61443 -0.188968 3.41213 4.59835 0.351967 3.3992 -12.5464 13.0632 -5.85713 -12.9693 28.4974 -1.65113 -0.0 0.0 -0.0 -7.85067 16.4827 -10.5768 5.18507 -30.3186 58.9113 4.5549 -66.0757 2.96317 -8.97459 -0.40126 1.07374 0.841701 -8.56021 2.04882 -0.0 0.0 -0.0 7.53466 -3.98918 -14.5838 -57.036 47.285 -52.6295 0.378212 10.6119 -0.0351252 70.272 2.76865 7.96923 2.13865 -29.8465 -23.7237 0.0 0.0 0.0 30.9522 20.1648 -9.2181 3.6853 -0.169209 -0.540042 -17.6068 8.77988 2.64404 9.63148 -0.0 -0.0 -0.0 0.0 -0.0 -4.99236 36.4837 3.98959 -10.3495 -0.285839 -1.56043 42.447 -21.9588 5.30077 -9.24399 0.0 0.0 0.0 0.0 0.0 
3430.02732049 711.584 -1700.44075545 -9.72810410767 2.16821642463 -1.88310211878 4.59743 0.475355 3.38417 4.60376 0.259176 3.40753 4.61443 -0.188968 3.41213 4.59835 0.351967 3.3992 -12.5464 13.0632 -5.85713 -12.9693 28.4974 -1.65113 -0.0 0.0 -0.0 -7.85067 16.4827 -10.5768 5.18507 -30.3186 58.9113 4.5549 -66.0757 2.96317 -8.97459 -0.40126 1.07374 0.841701 -8.56021 2.04882 -0.0 0.0 -0.0 7.53466 -3.98918 -14.5838 -57.036 47.285 -52.6295 0.378212 10.6119 -0.0351252 70.272 2.76865 7.96923 2.13865 -29.8465 -23.7237 0.0 0.0 0.0 30.9522 20.1648 -9.2181 3.6853 -0.169209 -0.540042 -17.6068 8.77988 2.64404 9.63148 -0.0 -0.0 -0.0 0.0 -0.0 -4.99236 36.4837 3.98959 -10.3495 -0.285839 -1.56043 42.447 -21.9588 5.30077 -9.24399 0.0 0.0 0.0 0.0 0.0 
